
        <svg xmlns="http://www.w3.org/2000/svg" xmlns:xlink="http://www.w3.org/1999/xlink" version="1.1" width="3162.3226657868695" 
        height="932.4827642102431" viewBox="0 0 3162.3226657868695 932.4827642102431">
			
			<g transform="scale(8.116133289343452) translate(10, 10)">
				<defs id="SvgjsDefs1628"><linearGradient id="SvgjsLinearGradient1633"><stop id="SvgjsStop1634" stop-color="#fbb040" offset="0"></stop><stop id="SvgjsStop1635" stop-color="#f9ed32" offset="1"></stop></linearGradient></defs><g id="SvgjsG1629" featureKey="symbolFeature-0" transform="matrix(1.5941621151726806,0,0,1.5941621151726806,-21.133436156196694,-17.535783266899486)" fill="url(#SvgjsLinearGradient1633)"><g xmlns="http://www.w3.org/2000/svg"><defs><rect id="a" width="80" height="80"></rect></defs><clipPath id="b"><use xmlns:xlink="http://www.w3.org/1999/xlink" xlink:href="#a" style="" overflow="visible"></use></clipPath><path d="M64,11H16c-1.7,0-3,1.4-2.7,3.1l6.4,44.1c0.2,1.4,1.3,3,2.6,3.6L37.8,70c1.3,0.7,3.2,0.7,4.5,0l15.5-8.1   c1.3-0.7,2.4-2.2,2.6-3.6l6.4-44.1C66.9,12.4,65.7,11,64,11 M58.3,57.9c-0.1,0.8-0.8,1.8-1.5,2.2l-15.5,8.1c-0.7,0.4-1.9,0.4-2.6,0   L23.2,60c-0.7-0.4-1.4-1.4-1.5-2.2l-6.4-44.1C15.2,13.3,15.5,13,16,13h48c0.5,0,0.8,0.4,0.7,0.8L58.3,57.9z" style="clip-path: url(#b);"></path><path d="M32.7,28.3c-0.4-0.4-1-0.4-1.4,0l-8,8c-0.4,0.4-0.4,1,0,1.4l8,8c0.4,0.4,1,0.4,1.4,0c0.4-0.4,0.4-1,0-1.4   L25.4,37l7.3-7.3C33.1,29.3,33.1,28.7,32.7,28.3" style="clip-path: url(#b);"></path><path d="M48.7,28.3c-0.4-0.4-1-0.4-1.4,0c-0.4,0.4-0.4,1,0,1.4l7.3,7.3l-7.3,7.3c-0.4,0.4-0.4,1,0,1.4   c0.4,0.4,1,0.4,1.4,0l8-8c0.4-0.4,0.4-1,0-1.4L48.7,28.3z" style="clip-path: url(#b);"></path><path d="M45.4,26.1c-0.5-0.2-1.1,0-1.3,0.4l-10,20c-0.2,0.5,0,1.1,0.4,1.3c0.5,0.2,1.1,0,1.3-0.4l10-20   C46.1,27,45.9,26.4,45.4,26.1" style="clip-path: url(#b);"></path></g></g><g id="SvgjsG1630" featureKey="nameFeature-0" transform="matrix(1.392953032333062,0,0,1.392953032333062,104.02063868188206,11.295734325474562)" fill="#ffffff"><path d="M0.70313 12.07 l9.5703 -0.000019073 c3.2031 0 5.2734 1.1263 6.2109 3.3789 c0.40365 1.1588 0.60547 2.4869 0.60547 3.9844 l0 1.1719 c0 2.7084 -0.59244 4.7721 -1.7773 6.1914 l-2.0313 0 l0 1.0352 l3.1055 0 l0 6.6797 l-1.8359 0 l0 1.0352 l2.7734 0 l0 3.9453 l-5.8203 0 l0 -6.3086 l-2.2461 0 l0 -4.082 l-3.9063 0 l0 6.9141 l0.83984 0 l0 3.9844 l-5.3906 0 c-0.065098 0 -0.097656 -0.032559 -0.097656 -0.097656 l0 -11.211 l2.4023 0 l0 -0.80078 l-2.4023 0 l0 -15.82 z M6.1914 16.621 l0 7.8906 l1.3281 0 c1.9922 0 3.1445 -0.18881 3.457 -0.56641 c0.32553 -0.20834 0.57943 -0.63152 0.76172 -1.2696 l2.0703 0 l0 -0.99609 l-1.875 0 l0 0.097656 c-0.10416 0.59896 -0.18229 0.89844 -0.23438 0.89844 l-2.6758 0 l0 -0.99609 l2.8125 0 c0.065098 0 0.097656 -0.026035 0.097656 -0.078125 c0.026035 -0.80729 0.039063 -1.263 0.039063 -1.3672 c0 -1.7448 -0.29947 -2.8125 -0.89844 -3.2031 c-0.46875 -0.27344 -1.3281 -0.41016 -2.5781 -0.41016 l-2.3047 0 z M5.5859 29.336 l0.23438 0 c0.13021 0.065098 0.19531 0.16275 0.19531 0.29297 c0.05209 0 0.11068 -0.097656 0.17578 -0.29297 l0.29297 0 l0 0.058594 l-0.29297 0.41016 c0 0.026035 0.11068 0.20182 0.33203 0.52734 l0 0.039063 l-0.23438 0 c-0.026035 0 -0.11719 -0.11068 -0.27344 -0.33203 c-0.091152 0.20834 -0.16928 0.31902 -0.23438 0.33205 l-0.23438 0 c0.20834 -0.32553 0.3125 -0.51434 0.3125 -0.56643 z M5.625 30.7422 l0.85938 0 l0 0.15625 l-0.52734 0.64453 l0.52734 0 l0 0.23438 l-0.89844 0 l0 -0.17578 l0.50781 -0.66406 l-0.46875 0 l0 -0.19531 z M28.65215625 12.050999999999998 c4.0104 0 6.6471 1.3998 7.9102 4.1992 c0.71615 1.3672 1.0742 4.0039 1.0742 7.9102 l0 0.13672 l-2.0703 0 l0 0.9375 l2.0703 0 l0 10.098 l-1.3672 0 l0 3.6328 l-2.7148 0 l0 1.0352 l-9.4922 0 l0 -1.0352 l-1.1523 0 l0 -3.6328 l-2.4414 0 l0 -2.8516 l1.4453 0 l0 -1.5039 l-1.4453 0 l0 1.5039 l-3.457 0 l0 -1.5039 l2.6172 0 c-0.026035 -2.2787 -0.039063 -4.0234 -0.039063 -5.2344 l0 -2.3828 c0 -4.4271 0.74869 -7.3893 2.2461 -8.8867 c1.3672 -1.6146 3.6393 -2.4219 6.8164 -2.4219 z M25.23435625 21.68 l0.058613 -0.000019073 l-0.058594 0.078125 l0 2.5391 l-2.0898 0 l0 0.9375 l2.0898 0 c-0.026035 4.0234 -0.039063 7.0572 -0.039063 9.1016 l0 0.99609 l4.668 0 l0 -1.543 l2.1484 0 l0 -0.058594 c0 -1.901 -0.013027 -4.5508 -0.039063 -7.9492 c0 -0.14322 0.013027 -0.50129 0.039063 -1.0742 c0 -3.6719 -0.21484 -5.9311 -0.64453 -6.7773 c-0.44271 -0.80729 -1.2565 -1.2109 -2.4414 -1.2109 l-0.68359 0 c-1.4193 0 -2.2982 0.625 -2.6367 1.875 c-0.15625 0.61197 -0.27994 1.6406 -0.37109 3.0859 z M37.637156250000004 24.297 l3.3594 0 l0 0.9375 l-3.3594 0 l0 -0.9375 z M40.5273425 12.09 l5.7031 0 c0.078125 0 0.6901 1.4909 1.8359 4.4727 c0.091152 0.11719 1.2891 3.06 3.5938 8.8281 l1.4648 0 l0 -13.301 l4.9805 0 l0 15.84 l0.56641 0 l0 6.1719 l-2.0117 0 l0 1.1914 l2.0117 0 l0 3.6719 l-7.4805 0 l0 -4.668 l-1.3281 0 c-1.7969 -4.375 -3.0078 -7.3959 -3.6328 -9.0625 l0 -4.707 l-0.70313 0 l0 14.336 l-1.1328 0 l0 4.9414 l-4.668 0 l0 -10.645 l0.83984 0 l0 -0.058594 c-0.026035 -9.1928 -0.039063 -14.863 -0.039063 -17.012 z M48.9257625 25.391 l0 1.0352 l3.1055 0 c-0.2474 -0.6901 -0.40365 -1.0352 -0.46875 -1.0352 l-2.6367 0 z M53.1645625 25.391 l0 1.0352 l-1.0938 0 c0.66406 1.6537 1.0612 2.7344 1.1914 3.2422 l0.039063 0 l0 -0.13672 c-0.091152 -1.6927 -0.13672 -2.7279 -0.13672 -3.1055 l2.2656 0 l0 -1.0352 l-2.2656 0 z M51.1915625 39.47266 l9.043 0 l0 0.52734 l-9.043 0 l0 -0.52734 z M70.99609625 11.992 l6.25 -0.000019073 c0.6901 2.5131 2.1094 7.5455 4.2578 15.098 l2.4609 0 c0.065098 0 0.33203 -0.90494 0.80078 -2.7148 c1.0417 -3.5547 2.207 -7.6822 3.4961 -12.383 l5.7813 0 l0 18.164 l0.33203 0 l0 3.3203 l-1.7578 0 l0 0.60547 l1.7578 0 l0 5.918 l-4.9219 0 l0 -2.168 l0.60547 0 l0 -6.7188 l-1.0352 0 l0 -3.3594 l-0.625 0 l-0.039063 0.17578 l-0.52734 0 l0 4.7852 l-1.6992 0 l0 2.2266 l-1.4648 0 l0 3.7891 l-3.457 0 l0 -2.4219 l-2.1289 0 l0 -3.3203 l-1.2695 0 l0 -3.4375 l-0.72266 0 c-0.026035 -0.19531 -0.18229 -0.79428 -0.46875 -1.7969 l4.9609 0 l-0.13672 -0.66406 l-4.9609 0 l0.13672 0.66406 l-0.66406 0 l0 4.3359 l0.33203 0 l0 4.7852 l-1.2305 0 l0 0.85938 l1.2305 0 l0 1.2695 l-4.4531 0 l0 -5.7617 l-0.83984 0 l0 -21.25 z M75.91800625 25.098 l0 0.33203 c0 0.28646 0.013027 0.83984 0.039063 1.6602 l0.46875 0 c-0.3125 -1.263 -0.46875 -1.9271 -0.46875 -1.9922 l-0.039063 0 z M89.02340625 25.137 l-0.42969 1.9531 l0.42969 0 c0.026035 -0.80729 0.039063 -1.3932 0.039063 -1.7578 l0 -0.19531 l-0.039063 0 z M74.35550625 27.09 l0 0.66406 l1.5625 0 l0 -0.66406 l-1.5625 0 z M84.04340625 27.09 l-0.13672 0.66406 l4.4531 0 c0.13021 -0.35156 0.19531 -0.57291 0.19531 -0.66406 l-4.5117 0 z M89.06240625 27.09 l0 0.66406 l3.418 0 l0 -0.66406 l-3.418 0 z M81.67940625 27.753999999999998 c0.22135 1.0026 0.36459 1.5039 0.42969 1.5039 l0.56641 0 l0 2.5 l0.89844 0 l0 -3.8672 l0.23438 0 l0 -0.13672 l-2.1289 0 z M94.37540625 33.4766 l2.832 0 l0 0.60547 l-2.832 0 l0 -0.60547 z M94.64840625 34.3164 l0.23438 -0.000019073 l0 0.42969 l0.39063 0 l0 -0.33203 c0 -0.065098 0.032559 -0.097656 0.097656 -0.097656 l0.078125 0 c0.065098 0.013027 0.097656 0.045586 0.097656 0.097676 l0 0.89844 c0 0.065098 -0.032559 0.097656 -0.097656 0.097656 l-0.17578 0 l0 -0.42969 l-0.39063 0 l0 0.42969 l-0.23438 0 l0 -1.0938 z M94.64840625 35.7422 l0.66406 -0.000019073 c0.065098 0.013027 0.097656 0.045586 0.097656 0.097676 l0 0.13672 l-0.52734 0 l0 0.19531 l0.42969 0 l0 0.23438 l-0.42969 0 l0 0.42969 l-0.23438 0 l0 -1.0938 z M94.70740624999999 37.168 l0.66404 0 c0.05209 0 0.078125 0.026035 0.078125 0.078125 l0 0.097656 l-0.50781 0.66406 l0.50781 0 l0 0.23438 l-0.80078 0 c-0.065098 0 -0.097656 -0.045566 -0.097656 -0.13672 c0.10416 -0.15625 0.27994 -0.39063 0.52734 -0.70313 l-0.46875 0 l0 -0.15625 c0.013027 -0.05209 0.045586 -0.078125 0.097676 -0.078125 z M94.64840625 38.5742 l0.23438 -0.000019073 l0 0.625 l0.058594 0.23438 l0.23438 0 c0.065098 0 0.097656 -0.032559 0.097656 -0.097656 l0 -0.66406 c0 -0.065098 0.032559 -0.097656 0.097656 -0.097656 l0.078125 0 c0.065098 0.013027 0.097656 0.045586 0.097656 0.097676 l0 0.56641 c0 0.28646 -0.14322 0.42969 -0.42969 0.42969 l-0.078125 0 c-0.18229 0 -0.3125 -0.078125 -0.39063 -0.23438 l0 -0.85938 z M70.56640625 39.2382 l5.0195 0 l0 0.42969 l-5.0195 0 l0 -0.42969 z M105.85938125 12.07 l4.707 0 c0.065098 0.27344 1.5885 5.358 4.5703 15.254 l0.85938 0 l0 9.1992 l-1.9336 0 l0 0.70313 l1.9336 0 l0 1.9727 l-5.1953 0 l0 -5.6445 l-6.3477 0 l0 2.4023 l-2.5977 0 l0 4.043 l-4.707 0 l0 -0.27344 l0.37109 0 l0 -3.7695 l1.9336 0 l0 -7.832 l1.6016 0 z M108.06678125 19.941 l0 0.039063 c-0.40365 2.2266 -1.1849 5.7291 -2.3438 10.508 l4.375 0 l0 -3.1641 l-0.37109 0 c-1.0417 -4.5182 -1.5625 -6.9791 -1.5625 -7.3828 l-0.097656 0 z M95.78128125 27.285 l3.6719 0 l0 0.83984 l-3.6719 0 l0 -0.83984 z M110.80078125 39.53125 l6.2695 0 l0 0.46875 l-6.2695 0 l0 -0.46875 z M125.78123125 12.09 c3.099 0 5.1758 0.99611 6.2305 2.9883 c0.72916 1.5104 1.0938 2.9883 1.0938 4.4336 l-0.039063 0 c-2.1225 0.18229 -3.5742 0.27344 -4.3555 0.27344 c0 -1.0287 -0.319 -1.8945 -0.95703 -2.5977 c-0.59896 -0.33854 -1.1523 -0.50781 -1.6602 -0.50781 l-0.78125 0 c-1.3281 0 -2.1354 0.51432 -2.4219 1.543 c-0.065098 0.29947 -0.097656 0.53385 -0.097656 0.70313 l0 0.41016 c0 1.4583 0.76822 2.5131 2.3047 3.1641 c0.13021 0.11719 1.1979 0.60547 3.2031 1.4648 c1.0677 0.49479 2.0572 1.1068 2.9688 1.8359 l0 0.039063 l-4.9023 0 l0 0.54688 l6.4648 0 l0 0.78125 l0.82031 0 l0 8.4766 l-1.6016 0 l0 4.3555 l-12.422 0 l0 -4.3555 l-2.9297 0 l0 -2.9297 l1.6602 0 l0 -1.0156 l-1.6602 0 l0 -0.68359 l5.6836 0 l0 4.6289 l5.8203 0 l0 -6.9727 l-4.3555 0 l0 -2.2852 l-5.4102 0 l0 -0.54688 l2.6172 0 l0 -0.039063 c-2.2916 -1.5234 -3.4375 -3.6783 -3.4375 -6.4648 l0 -0.37109 c0 -2.3307 0.71615 -4.1016 2.1484 -5.3125 c1.3021 -1.0417 3.3072 -1.5625 6.0156 -1.5625 z M132.83253125 25.84 l1.9727 0 l0 0.54688 l-1.9727 0 l0 -0.54688 z M114.82413125 31.699199999999998 l1.875 0 l0 1.0156 l-1.875 0 l0 -1.0156 z M144.60935625 12.09 c3.099 0 5.1758 0.99611 6.2305 2.9883 c0.72916 1.5104 1.0938 2.9883 1.0938 4.4336 l-0.039063 0 c-2.1225 0.18229 -3.5742 0.27344 -4.3555 0.27344 c0 -1.0287 -0.319 -1.8945 -0.95703 -2.5977 c-0.59896 -0.33854 -1.1523 -0.50781 -1.6602 -0.50781 l-0.78125 0 c-1.3281 0 -2.1354 0.51432 -2.4219 1.543 c-0.065098 0.29947 -0.097656 0.53385 -0.097656 0.70313 l0 0.41016 c0 1.4583 0.76822 2.5131 2.3047 3.1641 c0.13021 0.11719 1.1979 0.60547 3.2031 1.4648 c1.0677 0.49479 2.0572 1.1068 2.9688 1.8359 l0 0.039063 l-4.9023 0 l0 0.54688 l6.4648 0 l0 0.78125 l0.82031 0 l0 8.4766 l-1.6016 0 l0 4.3555 l-12.422 0 l0 -4.3555 l-2.9297 0 l0 -2.9297 l1.6602 0 l0 -1.0156 l-1.6602 0 l0 -0.68359 l5.6836 0 l0 4.6289 l5.8203 0 l0 -6.9727 l-4.3555 0 l0 -2.2852 l-5.4102 0 l0 -0.54688 l2.6172 0 l0 -0.039063 c-2.2916 -1.5234 -3.4375 -3.6783 -3.4375 -6.4648 l0 -0.37109 c0 -2.3307 0.71615 -4.1016 2.1484 -5.3125 c1.3021 -1.0417 3.3072 -1.5625 6.0156 -1.5625 z M151.66065625 25.84 l1.9727 0 l0 0.54688 l-1.9727 0 l0 -0.54688 z M133.65225625 31.699199999999998 l1.875 0 l0 1.0156 l-1.875 0 l0 -1.0156 z M155.78128125 12.207 l13.691 0 l0 4.5508 c0 0.065098 -0.032559 0.097656 -0.097656 0.097656 l-8.125 0 l0 6.0156 l7.2852 0 l0 0.058594 c0 0.16928 -0.026035 1.1523 -0.078125 2.9492 c-0.039063 0 -0.058594 0.013027 -0.058594 0.039063 l0.33203 0 l0 1.4063 l-6.3086 0 l0 5.7031 l-1.6992 0 l0 0.56641 l1.6992 0 l0 1.7383 l7.1484 0 l0 0.64453 l-0.56641 0 l0 3.418 l-8.5547 0 l0 0.60547 l-4.0625 0 l0 -9.9609 l-0.60547 0 l0 -3.5156 l-4.4531 0 l0 -0.60547 l4.4531 0 l0 -13.711 z M155.82028125 25.918 l0 0.60547 l2.2852 0 l0 -0.60547 l-2.2852 0 z M173.0468875 12.07 l5.4883 0.000019073 c0 2.6953 0.46875 4.9805 1.4063 6.8555 c1.0026 2.4479 1.6927 4.3881 2.0703 5.8203 l0 0.058594 l0.039063 0 c0.46875 -1.7318 1.4388 -4.3945 2.9102 -7.9883 c0.3776 -1.7057 0.56641 -3.2877 0.56641 -4.7461 l5.1563 0 c-0.3125 2.8125 -0.70313 4.8828 -1.1719 6.2109 l-3.1055 7.0313 l-1.875 0 l0 4.8242 l-2.8516 0 l0 0.9375 l2.8516 0 l0 8.9258 l-5.3516 0 c-0.05209 0 -0.078125 -0.032559 -0.078125 -0.097656 l0 -4.3555 l-0.85938 0 l0 -7.7539 l1.6016 0 l0 -0.70313 l-1.7383 0 c-0.14322 -0.16928 -1.2239 -2.5912 -3.2422 -7.2656 c-0.84635 -1.875 -1.2695 -3.0014 -1.2695 -3.3789 l2.3047 0 l0 -0.99609 l-2.4805 0 c-0.2474 -2.0572 -0.37109 -3.1836 -0.37109 -3.3789 z M169.7069875 15.449000000000002 l3.7109 0 l0.13672 0.99609 l-3.8477 0 l0 -0.99609 z M184.5316875 30.136699999999998 l2.3047 0 l0 0.9375 l-2.3047 0 l0 -0.9375 z"></path></g>
			</g>
		</svg>
	