
        <svg xmlns="http://www.w3.org/2000/svg" xmlns:xlink="http://www.w3.org/1999/xlink" version="1.1" width="3272.727272727273" 
        height="1788.5423755332772" viewBox="0 0 3272.727272727273 1788.5423755332772">
			
			<g transform="scale(13.636363636363637) translate(10, 10)">
				<defs id="SvgjsDefs3494"><linearGradient id="SvgjsLinearGradient3499"><stop id="SvgjsStop3500" stop-color="#fbb040" offset="0"></stop><stop id="SvgjsStop3501" stop-color="#f9ed32" offset="1"></stop></linearGradient></defs><g id="SvgjsG3495" featureKey="symbolFeature-0" transform="matrix(1.867447049202283,0,0,1.867447049202283,-24.756310925830416,-20.541917541225114)" fill="url(#SvgjsLinearGradient3499)"><g xmlns="http://www.w3.org/2000/svg"><defs><rect id="a" width="80" height="80"></rect></defs><clipPath id="b"><use xmlns:xlink="http://www.w3.org/1999/xlink" xlink:href="#a" style="" overflow="visible"></use></clipPath><path d="M64,11H16c-1.7,0-3,1.4-2.7,3.1l6.4,44.1c0.2,1.4,1.3,3,2.6,3.6L37.8,70c1.3,0.7,3.2,0.7,4.5,0l15.5-8.1   c1.3-0.7,2.4-2.2,2.6-3.6l6.4-44.1C66.9,12.4,65.7,11,64,11 M58.3,57.9c-0.1,0.8-0.8,1.8-1.5,2.2l-15.5,8.1c-0.7,0.4-1.9,0.4-2.6,0   L23.2,60c-0.7-0.4-1.4-1.4-1.5-2.2l-6.4-44.1C15.2,13.3,15.5,13,16,13h48c0.5,0,0.8,0.4,0.7,0.8L58.3,57.9z" style="clip-path: url(#b);"></path><path d="M32.7,28.3c-0.4-0.4-1-0.4-1.4,0l-8,8c-0.4,0.4-0.4,1,0,1.4l8,8c0.4,0.4,1,0.4,1.4,0c0.4-0.4,0.4-1,0-1.4   L25.4,37l7.3-7.3C33.1,29.3,33.1,28.7,32.7,28.3" style="clip-path: url(#b);"></path><path d="M48.7,28.3c-0.4-0.4-1-0.4-1.4,0c-0.4,0.4-0.4,1,0,1.4l7.3,7.3l-7.3,7.3c-0.4,0.4-0.4,1,0,1.4   c0.4,0.4,1,0.4,1.4,0l8-8c0.4-0.4,0.4-1,0-1.4L48.7,28.3z" style="clip-path: url(#b);"></path><path d="M45.4,26.1c-0.5-0.2-1.1,0-1.3,0.4l-10,20c-0.2,0.5,0,1.1,0.4,1.3c0.5,0.2,1.1,0,1.3-0.4l10-20   C46.1,27,45.9,26.4,45.4,26.1" style="clip-path: url(#b);"></path></g></g><g id="SvgjsG3496" featureKey="nameFeature-0" transform="matrix(2.2806019813460496,0,0,2.2806019813460496,118.39654797347151,-3.348934608690115)" fill="#ffffff"><path d="M0.70313 12.07 l9.5703 -0.000019073 c3.2031 0 5.2734 1.1263 6.2109 3.3789 c0.40365 1.1588 0.60547 2.4869 0.60547 3.9844 l0 1.1719 c0 2.7084 -0.59244 4.7721 -1.7773 6.1914 l-2.0313 0 l0 1.0352 l3.1055 0 l0 6.6797 l-1.8359 0 l0 1.0352 l2.7734 0 l0 3.9453 l-5.8203 0 l0 -6.3086 l-2.2461 0 l0 -4.082 l-3.9063 0 l0 6.9141 l0.83984 0 l0 3.9844 l-5.3906 0 c-0.065098 0 -0.097656 -0.032559 -0.097656 -0.097656 l0 -11.211 l2.4023 0 l0 -0.80078 l-2.4023 0 l0 -15.82 z M6.1914 16.621 l0 7.8906 l1.3281 0 c1.9922 0 3.1445 -0.18881 3.457 -0.56641 c0.32553 -0.20834 0.57943 -0.63152 0.76172 -1.2696 l2.0703 0 l0 -0.99609 l-1.875 0 l0 0.097656 c-0.10416 0.59896 -0.18229 0.89844 -0.23438 0.89844 l-2.6758 0 l0 -0.99609 l2.8125 0 c0.065098 0 0.097656 -0.026035 0.097656 -0.078125 c0.026035 -0.80729 0.039063 -1.263 0.039063 -1.3672 c0 -1.7448 -0.29947 -2.8125 -0.89844 -3.2031 c-0.46875 -0.27344 -1.3281 -0.41016 -2.5781 -0.41016 l-2.3047 0 z M5.5859 29.336 l0.23438 0 c0.13021 0.065098 0.19531 0.16275 0.19531 0.29297 c0.05209 0 0.11068 -0.097656 0.17578 -0.29297 l0.29297 0 l0 0.058594 l-0.29297 0.41016 c0 0.026035 0.11068 0.20182 0.33203 0.52734 l0 0.039063 l-0.23438 0 c-0.026035 0 -0.11719 -0.11068 -0.27344 -0.33203 c-0.091152 0.20834 -0.16928 0.31902 -0.23438 0.33205 l-0.23438 0 c0.20834 -0.32553 0.3125 -0.51434 0.3125 -0.56643 z M5.625 30.7422 l0.85938 0 l0 0.15625 l-0.52734 0.64453 l0.52734 0 l0 0.23438 l-0.89844 0 l0 -0.17578 l0.50781 -0.66406 l-0.46875 0 l0 -0.19531 z M18.33984625 11.992 l6.25 -0.000019073 c0.6901 2.5131 2.1094 7.5455 4.2578 15.098 l2.4609 0 c0.065098 0 0.33203 -0.90494 0.80078 -2.7148 c1.0417 -3.5547 2.207 -7.6822 3.4961 -12.383 l5.7813 0 l0 18.164 l0.33203 0 l0 3.3203 l-1.7578 0 l0 0.60547 l1.7578 0 l0 5.918 l-4.9219 0 l0 -2.168 l0.60547 0 l0 -6.7188 l-1.0352 0 l0 -3.3594 l-0.625 0 l-0.039063 0.17578 l-0.52734 0 l0 4.7852 l-1.6992 0 l0 2.2266 l-1.4648 0 l0 3.7891 l-3.457 0 l0 -2.4219 l-2.1289 0 l0 -3.3203 l-1.2695 0 l0 -3.4375 l-0.72266 0 c-0.026035 -0.19531 -0.18229 -0.79428 -0.46875 -1.7969 l4.9609 0 l-0.13672 -0.66406 l-4.9609 0 l0.13672 0.66406 l-0.66406 0 l0 4.3359 l0.33203 0 l0 4.7852 l-1.2305 0 l0 0.85938 l1.2305 0 l0 1.2695 l-4.4531 0 l0 -5.7617 l-0.83984 0 l0 -21.25 z M23.26175625 25.098 l0 0.33203 c0 0.28646 0.013027 0.83984 0.039063 1.6602 l0.46875 0 c-0.3125 -1.263 -0.46875 -1.9271 -0.46875 -1.9922 l-0.039063 0 z M36.36715625 25.137 l-0.42969 1.9531 l0.42969 0 c0.026035 -0.80729 0.039063 -1.3932 0.039063 -1.7578 l0 -0.19531 l-0.039063 0 z M21.69925625 27.09 l0 0.66406 l1.5625 0 l0 -0.66406 l-1.5625 0 z M31.38715625 27.09 l-0.13672 0.66406 l4.4531 0 c0.13021 -0.35156 0.19531 -0.57291 0.19531 -0.66406 l-4.5117 0 z M36.406156249999995 27.09 l0 0.66406 l3.418 0 l0 -0.66406 l-3.418 0 z M29.02315625 27.753999999999998 c0.22135 1.0026 0.36459 1.5039 0.42969 1.5039 l0.56641 0 l0 2.5 l0.89844 0 l0 -3.8672 l0.23438 0 l0 -0.13672 l-2.1289 0 z M41.71915625 33.4766 l2.832 0 l0 0.60547 l-2.832 0 l0 -0.60547 z M41.99215625 34.3164 l0.23438 -0.000019073 l0 0.42969 l0.39063 0 l0 -0.33203 c0 -0.065098 0.032559 -0.097656 0.097656 -0.097656 l0.078125 0 c0.065098 0.013027 0.097656 0.045586 0.097656 0.097676 l0 0.89844 c0 0.065098 -0.032559 0.097656 -0.097656 0.097656 l-0.17578 0 l0 -0.42969 l-0.39063 0 l0 0.42969 l-0.23438 0 l0 -1.0938 z M41.99215625 35.7422 l0.66406 -0.000019073 c0.065098 0.013027 0.097656 0.045586 0.097656 0.097676 l0 0.13672 l-0.52734 0 l0 0.19531 l0.42969 0 l0 0.23438 l-0.42969 0 l0 0.42969 l-0.23438 0 l0 -1.0938 z M42.05115625 37.168 l0.66404 0 c0.05209 0 0.078125 0.026035 0.078125 0.078125 l0 0.097656 l-0.50781 0.66406 l0.50781 0 l0 0.23438 l-0.80078 0 c-0.065098 0 -0.097656 -0.045566 -0.097656 -0.13672 c0.10416 -0.15625 0.27994 -0.39063 0.52734 -0.70313 l-0.46875 0 l0 -0.15625 c0.013027 -0.05209 0.045586 -0.078125 0.097676 -0.078125 z M41.99215625 38.5742 l0.23438 -0.000019073 l0 0.625 l0.058594 0.23438 l0.23438 0 c0.065098 0 0.097656 -0.032559 0.097656 -0.097656 l0 -0.66406 c0 -0.065098 0.032559 -0.097656 0.097656 -0.097656 l0.078125 0 c0.065098 0.013027 0.097656 0.045586 0.097656 0.097676 l0 0.56641 c0 0.28646 -0.14322 0.42969 -0.42969 0.42969 l-0.078125 0 c-0.18229 0 -0.3125 -0.078125 -0.39063 -0.23438 l0 -0.85938 z M17.91015625 39.2382 l5.0195 0 l0 0.42969 l-5.0195 0 l0 -0.42969 z"></path></g>
			</g>
		</svg>
	